<svg width="210" height="130" viewBox="0 0 210 130" fill="none" xmlns="http://www.w3.org/2000/svg">
<rect x="0.5" y="0.5" width="209" height="129" rx="4.5" fill="#E3E6F0" stroke="#C4C4C4" stroke-dasharray="4 4"/>
<path d="M81.1427 47.1044H120.607V65.4483H126.678V47.1044C126.678 44.2139 123.955 41.8633 120.607 41.8633H81.1427C77.7943 41.8633 75.0713 44.2139 75.0713 47.1044V78.551C75.0713 81.4415 77.7943 83.7921 81.1427 83.7921H105.428V78.551H81.1427V47.1044Z" fill="#C4C4C4"/>
<path d="M93.2859 62.827L84.1787 73.3093H117.572L105.429 57.5859L96.3216 68.0681L93.2859 62.827Z" fill="#C4C4C4"/>
<path d="M126.679 70.6895H120.607V78.5511H111.5V83.7922H120.607V91.6539H126.679V83.7922H135.786V78.5511H126.679V70.6895Z" fill="#C4C4C4"/>
</svg>
