<svg width="396" height="183" viewBox="0 0 396 183" fill="none" xmlns="http://www.w3.org/2000/svg">
<path d="M67.7109 124.164H28.0547L19.7578 148H1.26562L39.9375 45.625H55.8984L94.6406 148H76.0781L67.7109 124.164ZM33.0469 109.82H62.7188L47.8828 67.3516L33.0469 109.82ZM182.883 114.672C181.852 125.594 177.82 134.125 170.789 140.266C163.758 146.359 154.406 149.406 142.734 149.406C134.578 149.406 127.383 147.484 121.148 143.641C114.961 139.75 110.18 134.242 106.805 127.117C103.43 119.992 101.672 111.719 101.531 102.297V92.7344C101.531 83.0781 103.242 74.5703 106.664 67.2109C110.086 59.8516 114.984 54.1797 121.359 50.1953C127.781 46.2109 135.188 44.2188 143.578 44.2188C154.875 44.2188 163.969 47.2891 170.859 53.4297C177.75 59.5703 181.758 68.2422 182.883 79.4453H165.164C164.32 72.0859 162.164 66.7891 158.695 63.5547C155.273 60.2734 150.234 58.6328 143.578 58.6328C135.844 58.6328 129.891 61.4687 125.719 67.1406C121.594 72.7656 119.484 81.0391 119.391 91.9609V101.031C119.391 112.094 121.359 120.531 125.297 126.344C129.281 132.156 135.094 135.062 142.734 135.062C149.719 135.062 154.969 133.492 158.484 130.352C162 127.211 164.227 121.984 165.164 114.672H182.883ZM221.906 45.625L251.438 124.094L280.898 45.625H303.891V148H286.172V114.25L287.93 69.1094L257.695 148H244.969L214.805 69.1797L216.562 114.25V148H198.844V45.625H221.906ZM384.82 102.297H342.773V133.797H391.922V148H324.984V45.625H391.43V59.9688H342.773V88.2344H384.82V102.297Z" fill="black"/>
<rect width="396" height="14" fill="black"/>
</svg>
