<svg width="80" height="30" viewBox="0 0 80 30" fill="none" xmlns="http://www.w3.org/2000/svg">
<path d="M17.9336 18.3213C17.5 18.9424 16.8936 19.4082 16.1143 19.7188C15.3408 20.0234 14.4385 20.1758 13.4072 20.1758C12.3643 20.1758 11.4385 19.9326 10.6299 19.4463C9.82129 18.9541 9.19434 18.2568 8.74902 17.3545C8.30957 16.4521 8.08398 15.4062 8.07227 14.2168V13.1006C8.07227 11.1729 8.52051 9.67871 9.41699 8.61816C10.3193 7.55762 11.585 7.02734 13.2139 7.02734C14.5498 7.02734 15.625 7.37012 16.4395 8.05566C17.2539 8.73535 17.752 9.70215 17.9336 10.9561H16.2461C15.9297 9.2627 14.9219 8.41602 13.2227 8.41602C12.0918 8.41602 11.2334 8.81445 10.6475 9.61133C10.0674 10.4023 9.77441 11.5508 9.76855 13.0566V14.1025C9.76855 15.5381 10.0967 16.6807 10.7529 17.5303C11.4092 18.374 12.2969 18.7959 13.416 18.7959C14.0488 18.7959 14.6025 18.7256 15.0771 18.585C15.5518 18.4443 15.9443 18.207 16.2549 17.873V14.999H13.293V13.6279H17.9336V18.3213ZM22.2666 20H20.6406V10.4902H22.2666V20ZM20.5088 7.96777C20.5088 7.7041 20.5879 7.48145 20.7461 7.2998C20.9102 7.11816 21.1504 7.02734 21.4668 7.02734C21.7832 7.02734 22.0234 7.11816 22.1875 7.2998C22.3516 7.48145 22.4336 7.7041 22.4336 7.96777C22.4336 8.23145 22.3516 8.45117 22.1875 8.62695C22.0234 8.80273 21.7832 8.89062 21.4668 8.89062C21.1504 8.89062 20.9102 8.80273 20.7461 8.62695C20.5879 8.45117 20.5088 8.23145 20.5088 7.96777ZM25.6768 20V11.7471H24.1738V10.4902H25.6768V9.51465C25.6768 8.49512 25.9492 7.70703 26.4941 7.15039C27.0391 6.59375 27.8096 6.31543 28.8057 6.31543C29.1807 6.31543 29.5527 6.36523 29.9219 6.46484L29.834 7.7832C29.5586 7.73047 29.2656 7.7041 28.9551 7.7041C28.4277 7.7041 28.0205 7.85938 27.7334 8.16992C27.4463 8.47461 27.3027 8.91406 27.3027 9.48828V10.4902H29.333V11.7471H27.3027V20H25.6768ZM33.3408 8.1875V10.4902H35.1162V11.7471H33.3408V17.6445C33.3408 18.0254 33.4199 18.3125 33.5781 18.5059C33.7363 18.6934 34.0059 18.7871 34.3867 18.7871C34.5742 18.7871 34.832 18.752 35.1602 18.6816V20C34.7324 20.1172 34.3164 20.1758 33.9121 20.1758C33.1855 20.1758 32.6377 19.9561 32.2686 19.5166C31.8994 19.0771 31.7148 18.4531 31.7148 17.6445V11.7471H29.9834V10.4902H31.7148V8.1875H33.3408ZM48.8096 16.6602H43.4482L42.2441 20H40.5039L45.3906 7.20312H46.8672L51.7627 20H50.0312L48.8096 16.6602ZM43.958 15.2715H48.3086L46.1289 9.28613L43.958 15.2715ZM61.2637 15.3506C61.2637 16.7979 60.9326 17.9639 60.2705 18.8486C59.6084 19.7334 58.7119 20.1758 57.5811 20.1758C56.4268 20.1758 55.5186 19.8096 54.8564 19.0771V23.6562H53.2305V10.4902H54.7158L54.7949 11.5449C55.457 10.7246 56.377 10.3145 57.5547 10.3145C58.6973 10.3145 59.5996 10.7451 60.2617 11.6064C60.9297 12.4678 61.2637 13.666 61.2637 15.2012V15.3506ZM59.6377 15.166C59.6377 14.0938 59.4092 13.2471 58.9521 12.626C58.4951 12.0049 57.8682 11.6943 57.0713 11.6943C56.0869 11.6943 55.3486 12.1309 54.8564 13.0039V17.5479C55.3428 18.415 56.0869 18.8486 57.0889 18.8486C57.8682 18.8486 58.4863 18.541 58.9434 17.9258C59.4062 17.3047 59.6377 16.3848 59.6377 15.166ZM71.3711 15.3506C71.3711 16.7979 71.04 17.9639 70.3779 18.8486C69.7158 19.7334 68.8193 20.1758 67.6885 20.1758C66.5342 20.1758 65.626 19.8096 64.9639 19.0771V23.6562H63.3379V10.4902H64.8232L64.9023 11.5449C65.5645 10.7246 66.4844 10.3145 67.6621 10.3145C68.8047 10.3145 69.707 10.7451 70.3691 11.6064C71.0371 12.4678 71.3711 13.666 71.3711 15.2012V15.3506ZM69.7451 15.166C69.7451 14.0938 69.5166 13.2471 69.0596 12.626C68.6025 12.0049 67.9756 11.6943 67.1787 11.6943C66.1943 11.6943 65.4561 12.1309 64.9639 13.0039V17.5479C65.4502 18.415 66.1943 18.8486 67.1963 18.8486C67.9756 18.8486 68.5938 18.541 69.0508 17.9258C69.5137 17.3047 69.7451 16.3848 69.7451 15.166Z" fill="white"/>
<rect x="3" width="27" height="3" fill="white"/>
<rect y="14" width="14" height="3" transform="rotate(-90 0 14)" fill="white"/>
<rect x="77" y="30" width="27" height="3" transform="rotate(-180 77 30)" fill="white"/>
<rect x="80" y="16" width="14" height="3" transform="rotate(90 80 16)" fill="white"/>
</svg>
