<svg width="129" height="36" viewBox="0 0 129 36" fill="none" xmlns="http://www.w3.org/2000/svg">
<path d="M14.8672 20.1562L13.0391 22.125V27H9.52344V9.9375H13.0391V17.6719L14.5859 15.5508L18.9336 9.9375H23.2578L17.1992 17.5195L23.4336 27H19.25L14.8672 20.1562ZM38.3984 18.8555C38.3984 20.5352 38.1016 22.0078 37.5078 23.2734C36.9141 24.5391 36.0625 25.5156 34.9531 26.2031C33.8516 26.8906 32.5859 27.2344 31.1562 27.2344C29.7422 27.2344 28.4805 26.8945 27.3711 26.2148C26.2617 25.5352 25.4023 24.5664 24.793 23.3086C24.1836 22.043 23.875 20.5898 23.8672 18.9492V18.1055C23.8672 16.4258 24.168 14.9492 24.7695 13.6758C25.3789 12.3945 26.2344 11.4141 27.3359 10.7344C28.4453 10.0469 29.7109 9.70312 31.1328 9.70312C32.5547 9.70312 33.8164 10.0469 34.918 10.7344C36.0273 11.4141 36.8828 12.3945 37.4844 13.6758C38.0938 14.9492 38.3984 16.4219 38.3984 18.0938V18.8555ZM34.8359 18.082C34.8359 16.293 34.5156 14.9336 33.875 14.0039C33.2344 13.0742 32.3203 12.6094 31.1328 12.6094C29.9531 12.6094 29.043 13.0703 28.4023 13.9922C27.7617 14.9062 27.4375 16.25 27.4297 18.0234V18.8555C27.4297 20.5977 27.75 21.9492 28.3906 22.9102C29.0312 23.8711 29.9531 24.3516 31.1562 24.3516C32.3359 24.3516 33.2422 23.8906 33.875 22.9688C34.5078 22.0391 34.8281 20.6875 34.8359 18.9141V18.082ZM44.4688 20.9883V27H40.9531V9.9375H47.6094C48.8906 9.9375 50.0156 10.1719 50.9844 10.6406C51.9609 11.1094 52.7109 11.7773 53.2344 12.6445C53.7578 13.5039 54.0195 14.4844 54.0195 15.5859C54.0195 17.2578 53.4453 18.5781 52.2969 19.5469C51.1562 20.5078 49.5742 20.9883 47.5508 20.9883H44.4688ZM44.4688 18.1406H47.6094C48.5391 18.1406 49.2461 17.9219 49.7305 17.4844C50.2227 17.0469 50.4688 16.4219 50.4688 15.6094C50.4688 14.7734 50.2227 14.0977 49.7305 13.582C49.2383 13.0664 48.5586 12.8008 47.6914 12.7852H44.4688V18.1406ZM66.7109 19.6055H59.9609V24.1758H67.8828V27H56.4453V9.9375H67.8594V12.7852H59.9609V16.8516H66.7109V19.6055ZM76.2617 20.7539H73.4609V27H69.9453V9.9375H76.2852C78.3008 9.9375 79.8555 10.3867 80.9492 11.2852C82.043 12.1836 82.5898 13.4531 82.5898 15.0938C82.5898 16.2578 82.3359 17.2305 81.8281 18.0117C81.3281 18.7852 80.5664 19.4023 79.543 19.8633L83.2344 26.8359V27H79.4609L76.2617 20.7539ZM73.4609 17.9062H76.2969C77.1797 17.9062 77.8633 17.6836 78.3477 17.2383C78.832 16.7852 79.0742 16.1641 79.0742 15.375C79.0742 14.5703 78.8438 13.9375 78.3828 13.4766C77.9297 13.0156 77.2305 12.7852 76.2852 12.7852H73.4609V17.9062ZM94.9062 23.4844H88.7422L87.5703 27H83.832L90.1836 9.9375H93.4414L99.8281 27H96.0898L94.9062 23.4844ZM89.6914 20.6367H93.957L91.8125 14.25L89.6914 20.6367ZM110.27 22.5234C110.27 21.8594 110.035 21.3516 109.566 21C109.098 20.6406 108.254 20.2656 107.035 19.875C105.816 19.4766 104.852 19.0859 104.141 18.7031C102.203 17.6562 101.234 16.2461 101.234 14.4727C101.234 13.5508 101.492 12.7305 102.008 12.0117C102.531 11.2852 103.277 10.7188 104.246 10.3125C105.223 9.90625 106.316 9.70312 107.527 9.70312C108.746 9.70312 109.832 9.92578 110.785 10.3711C111.738 10.8086 112.477 11.4297 113 12.2344C113.531 13.0391 113.797 13.9531 113.797 14.9766H110.281C110.281 14.1953 110.035 13.5898 109.543 13.1602C109.051 12.7227 108.359 12.5039 107.469 12.5039C106.609 12.5039 105.941 12.6875 105.465 13.0547C104.988 13.4141 104.75 13.8906 104.75 14.4844C104.75 15.0391 105.027 15.5039 105.582 15.8789C106.145 16.2539 106.969 16.6055 108.055 16.9336C110.055 17.5352 111.512 18.2812 112.426 19.1719C113.34 20.0625 113.797 21.1719 113.797 22.5C113.797 23.9766 113.238 25.1367 112.121 25.9805C111.004 26.8164 109.5 27.2344 107.609 27.2344C106.297 27.2344 105.102 26.9961 104.023 26.5195C102.945 26.0352 102.121 25.375 101.551 24.5391C100.988 23.7031 100.707 22.7344 100.707 21.6328H104.234C104.234 23.5156 105.359 24.457 107.609 24.457C108.445 24.457 109.098 24.2891 109.566 23.9531C110.035 23.6094 110.27 23.1328 110.27 22.5234ZM119.926 27H116.41V9.9375H119.926V27Z" fill="white"/>
<rect x="125" y="19" width="4" height="17" fill="white"/>
<rect x="112" y="36" width="4" height="17" transform="rotate(-90 112 36)" fill="white"/>
<rect width="4" height="17" fill="white"/>
<rect y="4" width="4" height="17" transform="rotate(-90 0 4)" fill="white"/>
</svg>
