<svg width="110" height="130" viewBox="0 0 110 130" fill="none" xmlns="http://www.w3.org/2000/svg">
<rect x="0.5" y="0.5" width="109" height="129" rx="4.5" fill="#E3E6F0" stroke="#C4C4C4" stroke-dasharray="4 4"/>
<path d="M35.1152 89.1602V92.5H33.9902V83.9688H37.1367C38.0703 83.9688 38.8008 84.207 39.3281 84.6836C39.8594 85.1602 40.125 85.791 40.125 86.5762C40.125 87.4043 39.8652 88.043 39.3457 88.4922C38.8301 88.9375 38.0898 89.1602 37.125 89.1602H35.1152ZM35.1152 88.2402H37.1367C37.7383 88.2402 38.1992 88.0996 38.5195 87.8184C38.8398 87.5332 39 87.123 39 86.5879C39 86.0801 38.8398 85.6738 38.5195 85.3691C38.1992 85.0645 37.7598 84.9062 37.2012 84.8945H35.1152V88.2402ZM42.5684 92.5H41.4844V86.1602H42.5684V92.5ZM41.3965 84.4785C41.3965 84.3027 41.4492 84.1543 41.5547 84.0332C41.6641 83.9121 41.8242 83.8516 42.0352 83.8516C42.2461 83.8516 42.4062 83.9121 42.5156 84.0332C42.625 84.1543 42.6797 84.3027 42.6797 84.4785C42.6797 84.6543 42.625 84.8008 42.5156 84.918C42.4062 85.0352 42.2461 85.0938 42.0352 85.0938C41.8242 85.0938 41.6641 85.0352 41.5547 84.918C41.4492 84.8008 41.3965 84.6543 41.3965 84.4785ZM45.4863 92.5H44.4023V83.5H45.4863V92.5ZM48.4043 92.5H47.3203V86.1602H48.4043V92.5ZM47.2324 84.4785C47.2324 84.3027 47.2852 84.1543 47.3906 84.0332C47.5 83.9121 47.6602 83.8516 47.8711 83.8516C48.082 83.8516 48.2422 83.9121 48.3516 84.0332C48.4609 84.1543 48.5156 84.3027 48.5156 84.4785C48.5156 84.6543 48.4609 84.8008 48.3516 84.918C48.2422 85.0352 48.082 85.0938 47.8711 85.0938C47.6602 85.0938 47.5 85.0352 47.3906 84.918C47.2852 84.8008 47.2324 84.6543 47.2324 84.4785ZM51.2285 86.9277C51.709 86.3379 52.334 86.043 53.1035 86.043C54.4434 86.043 55.1191 86.7988 55.1309 88.3105V92.5H54.0469V88.3047C54.043 87.8477 53.9375 87.5098 53.7305 87.291C53.5273 87.0723 53.209 86.9629 52.7754 86.9629C52.4238 86.9629 52.1152 87.0566 51.8496 87.2441C51.584 87.4316 51.377 87.6777 51.2285 87.9824V92.5H50.1445V83.5H51.2285V86.9277ZM60.0938 92.5V86.998H59.0918V86.1602H60.0938V85.6211C60.0938 84.9141 60.2949 84.3633 60.6973 83.9688C61.1035 83.5742 61.6758 83.377 62.4141 83.377C62.8516 83.377 63.4043 83.4961 64.0723 83.7344L63.8906 84.6484C63.4023 84.4531 62.9375 84.3555 62.4961 84.3555C62.0312 84.3555 61.6953 84.4609 61.4883 84.6719C61.2852 84.8789 61.1836 85.1914 61.1836 85.6094V86.1602H62.4785V86.998H61.1836V92.5H60.0938ZM64.6113 92.5H63.5215V86.1602H64.6113V92.5ZM67.5527 92.5H66.4688V83.5H67.5527V92.5ZM71.9238 92.6172C71.0645 92.6172 70.3652 92.3359 69.8262 91.7734C69.2871 91.207 69.0176 90.4512 69.0176 89.5059V89.3066C69.0176 88.6777 69.1367 88.1172 69.375 87.625C69.6172 87.1289 69.9531 86.7422 70.3828 86.4648C70.8164 86.1836 71.2852 86.043 71.7891 86.043C72.6133 86.043 73.2539 86.3145 73.7109 86.8574C74.168 87.4004 74.3965 88.1777 74.3965 89.1895V89.6406H70.1016C70.1172 90.2656 70.2988 90.7715 70.6465 91.1582C70.998 91.541 71.4434 91.7324 71.9824 91.7324C72.3652 91.7324 72.6895 91.6543 72.9551 91.498C73.2207 91.3418 73.4531 91.1348 73.6523 90.877L74.3145 91.3926C73.7832 92.209 72.9863 92.6172 71.9238 92.6172ZM71.7891 86.9336C71.3516 86.9336 70.9844 87.0938 70.6875 87.4141C70.3906 87.7305 70.207 88.1758 70.1367 88.75H73.3125V88.668C73.2812 88.1172 73.1328 87.6914 72.8672 87.3906C72.6016 87.0859 72.2422 86.9336 71.7891 86.9336Z" fill="#C4C4C4"/>
<path d="M42.4285 44.125H62.8571V55.5H65.9999V44.125C65.9999 42.3326 64.5904 40.875 62.8571 40.875H42.4285C40.6952 40.875 39.2856 42.3326 39.2856 44.125V63.625C39.2856 65.4174 40.6952 66.875 42.4285 66.875H54.9999V63.625H42.4285V44.125Z" fill="#C4C4C4"/>
<path d="M48.7143 53.875L44 60.375H61.2857L55 50.625L50.2857 57.125L48.7143 53.875Z" fill="#C4C4C4"/>
<path d="M66 58.75H62.8571V63.625H58.1428V66.875H62.8571V71.75H66V66.875H70.7143V63.625H66V58.75Z" fill="#C4C4C4"/>
</svg>
